<mxfile host="app.diagrams.net" agent="Mozilla/5.0 (Windows NT 10.0; Win64; x64) AppleWebKit/537.36 (KHTML, like Gecko) Chrome/129.0.0.0 Safari/537.36 Edg/129.0.0.0" version="24.7.17">
  <diagram name="Page-1" id="c7558073-3199-34d8-9f00-42111426c3f3">
    <mxGraphModel dx="2330" dy="845" grid="0" gridSize="24" guides="1" tooltips="1" connect="1" arrows="1" fold="1" page="0" pageScale="1" pageWidth="826" pageHeight="1169" background="#000099" math="0" shadow="0">
      <root>
        <mxCell id="0" />
        <mxCell id="1" parent="0" />
        <mxCell id="-sDVmUkW7w9gJZ2iMdyc-38" value="" style="edgeStyle=orthogonalEdgeStyle;rounded=0;orthogonalLoop=1;jettySize=auto;html=1;strokeColor=#FFFFFF;strokeWidth=2;" parent="1" source="2" target="-sDVmUkW7w9gJZ2iMdyc-37" edge="1">
          <mxGeometry relative="1" as="geometry" />
        </mxCell>
        <mxCell id="sXCSSm3qtaqTTpKXIJX--42" style="edgeStyle=orthogonalEdgeStyle;rounded=0;orthogonalLoop=1;jettySize=auto;html=1;strokeColor=#FFFFFF;strokeWidth=2;" parent="1" source="2" target="sXCSSm3qtaqTTpKXIJX--38" edge="1">
          <mxGeometry relative="1" as="geometry" />
        </mxCell>
        <mxCell id="sXCSSm3qtaqTTpKXIJX--70" style="edgeStyle=orthogonalEdgeStyle;shape=connector;rounded=0;orthogonalLoop=1;jettySize=auto;html=1;strokeColor=#FFFFFF;strokeWidth=2;align=center;verticalAlign=middle;fontFamily=Helvetica;fontSize=11;fontColor=default;labelBackgroundColor=default;endArrow=classic;" parent="1" source="2" target="sXCSSm3qtaqTTpKXIJX--71" edge="1">
          <mxGeometry relative="1" as="geometry">
            <mxPoint x="851.5517241379312" y="408.8620689655172" as="targetPoint" />
          </mxGeometry>
        </mxCell>
        <mxCell id="46jNm4-g0Nsb7Lgoay_Q-46" style="edgeStyle=orthogonalEdgeStyle;shape=connector;rounded=0;orthogonalLoop=1;jettySize=auto;html=1;strokeColor=#FFFFFF;strokeWidth=2;align=center;verticalAlign=middle;fontFamily=Helvetica;fontSize=11;fontColor=default;labelBackgroundColor=default;endArrow=classic;" edge="1" parent="1" source="2" target="46jNm4-g0Nsb7Lgoay_Q-39">
          <mxGeometry relative="1" as="geometry" />
        </mxCell>
        <mxCell id="46jNm4-g0Nsb7Lgoay_Q-66" style="edgeStyle=orthogonalEdgeStyle;shape=connector;rounded=0;orthogonalLoop=1;jettySize=auto;html=1;strokeColor=#FFFFFF;strokeWidth=2;align=center;verticalAlign=middle;fontFamily=Helvetica;fontSize=11;fontColor=default;labelBackgroundColor=default;endArrow=classic;" edge="1" parent="1" source="2" target="46jNm4-g0Nsb7Lgoay_Q-42">
          <mxGeometry relative="1" as="geometry" />
        </mxCell>
        <mxCell id="2" value="&lt;p style=&quot;margin: 4px 0px 0px;&quot;&gt;&lt;span style=&quot;color: rgb(255, 255, 255);&quot;&gt;1，初始化nvs参数库&lt;/span&gt;&lt;br&gt;&lt;/p&gt;&lt;p style=&quot;margin: 4px 0px 0px;&quot;&gt;&lt;span style=&quot;color: rgb(255, 255, 255);&quot;&gt;2，创建不同的功能任务&lt;/span&gt;&lt;/p&gt;&lt;p style=&quot;margin: 4px 0px 0px;&quot;&gt;&lt;span style=&quot;color: rgb(255, 255, 255);&quot;&gt;&lt;br&gt;&lt;/span&gt;&lt;/p&gt;" style="verticalAlign=middle;align=center;overflow=fill;fontSize=12;fontFamily=Helvetica;html=1;rounded=1;fontStyle=1;strokeWidth=3;fillColor=#0000FF;arcSize=25;" parent="1" vertex="1">
          <mxGeometry x="-5" y="253" width="200" height="40" as="geometry" />
        </mxCell>
        <mxCell id="4" value="BS01&#xa;app start" style="whiteSpace=wrap;align=center;verticalAlign=middle;fontStyle=1;strokeWidth=3;fillColor=#0066CC;" parent="1" vertex="1">
          <mxGeometry x="50" y="148" width="90" height="60" as="geometry" />
        </mxCell>
        <mxCell id="37" value="" style="edgeStyle=none;noEdgeStyle=1;strokeColor=#FFFFFF;strokeWidth=2" parent="1" source="4" target="2" edge="1">
          <mxGeometry width="100" height="100" relative="1" as="geometry">
            <mxPoint x="280" y="190" as="sourcePoint" />
            <mxPoint x="380" y="90" as="targetPoint" />
          </mxGeometry>
        </mxCell>
        <mxCell id="PsqxnXAQ3Fkz8UXOKLwo-47" value="" style="edgeStyle=orthogonalEdgeStyle;rounded=0;orthogonalLoop=1;jettySize=auto;html=1;strokeColor=#FFFFFF;strokeWidth=2;" parent="1" source="-sDVmUkW7w9gJZ2iMdyc-37" target="PsqxnXAQ3Fkz8UXOKLwo-46" edge="1">
          <mxGeometry relative="1" as="geometry" />
        </mxCell>
        <mxCell id="-sDVmUkW7w9gJZ2iMdyc-37" value="初始化led引脚" style="whiteSpace=wrap;html=1;fillColor=#0000FF;rounded=1;fontStyle=1;strokeWidth=3;fontColor=#FFFFFF;" parent="1" vertex="1">
          <mxGeometry x="-496" y="420.5" width="105" height="74" as="geometry" />
        </mxCell>
        <mxCell id="-sDVmUkW7w9gJZ2iMdyc-39" value="led任务" style="text;strokeColor=none;align=center;fillColor=none;html=1;verticalAlign=middle;whiteSpace=wrap;rounded=0;fontFamily=Helvetica;fontSize=12;fontColor=#FFFFFF;fontStyle=1;" parent="1" vertex="1">
          <mxGeometry x="-522" y="384" width="60" height="30" as="geometry" />
        </mxCell>
        <mxCell id="PsqxnXAQ3Fkz8UXOKLwo-37" value="" style="edgeStyle=orthogonalEdgeStyle;rounded=0;orthogonalLoop=1;jettySize=auto;html=1;strokeColor=#FFFFFF;strokeWidth=2;" parent="1" source="2" target="PsqxnXAQ3Fkz8UXOKLwo-38" edge="1">
          <mxGeometry relative="1" as="geometry">
            <mxPoint x="200" y="360" as="sourcePoint" />
            <mxPoint x="-8" y="432" as="targetPoint" />
            <Array as="points">
              <mxPoint x="95" y="366" />
              <mxPoint x="-15" y="366" />
            </Array>
          </mxGeometry>
        </mxCell>
        <mxCell id="PsqxnXAQ3Fkz8UXOKLwo-49" value="" style="edgeStyle=orthogonalEdgeStyle;shape=connector;rounded=0;orthogonalLoop=1;jettySize=auto;html=1;strokeColor=#FFFFFF;strokeWidth=2;align=center;verticalAlign=middle;fontFamily=Helvetica;fontSize=11;fontColor=default;labelBackgroundColor=default;endArrow=classic;" parent="1" source="PsqxnXAQ3Fkz8UXOKLwo-38" target="PsqxnXAQ3Fkz8UXOKLwo-48" edge="1">
          <mxGeometry relative="1" as="geometry" />
        </mxCell>
        <mxCell id="PsqxnXAQ3Fkz8UXOKLwo-38" value="对WiFi协议栈进行初始化" style="whiteSpace=wrap;html=1;fillColor=#0000FF;rounded=1;fontStyle=1;strokeWidth=3;fontColor=#FFFFFF;" parent="1" vertex="1">
          <mxGeometry x="-95" y="420.5" width="158" height="74" as="geometry" />
        </mxCell>
        <mxCell id="PsqxnXAQ3Fkz8UXOKLwo-39" value="WiFi任务" style="text;strokeColor=none;align=center;fillColor=none;html=1;verticalAlign=middle;whiteSpace=wrap;rounded=0;fontFamily=Helvetica;fontSize=12;fontColor=#FFFFFF;fontStyle=1;" parent="1" vertex="1">
          <mxGeometry x="-109" y="384" width="77" height="30" as="geometry" />
        </mxCell>
        <mxCell id="PsqxnXAQ3Fkz8UXOKLwo-40" value="" style="edgeStyle=orthogonalEdgeStyle;rounded=0;orthogonalLoop=1;jettySize=auto;html=1;strokeColor=#FFFFFF;strokeWidth=2;" parent="1" source="2" target="PsqxnXAQ3Fkz8UXOKLwo-41" edge="1">
          <mxGeometry relative="1" as="geometry">
            <mxPoint x="94" y="289.0000000000001" as="sourcePoint" />
            <mxPoint x="233" y="432.5" as="targetPoint" />
            <Array as="points">
              <mxPoint x="95" y="365" />
              <mxPoint x="247" y="365" />
            </Array>
          </mxGeometry>
        </mxCell>
        <mxCell id="PsqxnXAQ3Fkz8UXOKLwo-65" value="" style="edgeStyle=orthogonalEdgeStyle;shape=connector;rounded=0;orthogonalLoop=1;jettySize=auto;html=1;strokeColor=#FFFFFF;strokeWidth=2;align=center;verticalAlign=middle;fontFamily=Helvetica;fontSize=11;fontColor=default;labelBackgroundColor=default;endArrow=classic;" parent="1" source="PsqxnXAQ3Fkz8UXOKLwo-41" target="PsqxnXAQ3Fkz8UXOKLwo-64" edge="1">
          <mxGeometry relative="1" as="geometry" />
        </mxCell>
        <mxCell id="PsqxnXAQ3Fkz8UXOKLwo-41" value="&lt;p style=&quot;color: rgb(0, 0, 0); text-wrap: nowrap; margin: 4px 0px 0px;&quot;&gt;&lt;span style=&quot;color: rgb(255, 255, 255); text-wrap: wrap;&quot;&gt;1，对ble协议栈进行初始化&lt;/span&gt;&lt;/p&gt;" style="whiteSpace=wrap;html=1;fillColor=#0000FF;rounded=1;fontStyle=1;strokeWidth=3;fontColor=#FFFFFF;" parent="1" vertex="1">
          <mxGeometry x="166" y="424.47" width="158" height="74" as="geometry" />
        </mxCell>
        <mxCell id="PsqxnXAQ3Fkz8UXOKLwo-42" value="ble任务" style="text;strokeColor=none;align=center;fillColor=none;html=1;verticalAlign=middle;whiteSpace=wrap;rounded=0;fontFamily=Helvetica;fontSize=12;fontColor=#FFFFFF;fontStyle=1;" parent="1" vertex="1">
          <mxGeometry x="174.03" y="394.47" width="60" height="30" as="geometry" />
        </mxCell>
        <mxCell id="PsqxnXAQ3Fkz8UXOKLwo-43" value="" style="edgeStyle=orthogonalEdgeStyle;rounded=0;orthogonalLoop=1;jettySize=auto;html=1;strokeColor=#FFFFFF;strokeWidth=2;" parent="1" source="2" target="PsqxnXAQ3Fkz8UXOKLwo-44" edge="1">
          <mxGeometry relative="1" as="geometry">
            <mxPoint x="691" y="260.5" as="sourcePoint" />
          </mxGeometry>
        </mxCell>
        <mxCell id="sXCSSm3qtaqTTpKXIJX--55" value="" style="edgeStyle=orthogonalEdgeStyle;shape=connector;rounded=0;orthogonalLoop=1;jettySize=auto;html=1;strokeColor=#FFFFFF;strokeWidth=2;align=center;verticalAlign=middle;fontFamily=Helvetica;fontSize=11;fontColor=default;labelBackgroundColor=default;endArrow=classic;" parent="1" source="PsqxnXAQ3Fkz8UXOKLwo-44" target="sXCSSm3qtaqTTpKXIJX--63" edge="1">
          <mxGeometry relative="1" as="geometry">
            <mxPoint x="488.00000000000045" y="562.25" as="targetPoint" />
          </mxGeometry>
        </mxCell>
        <mxCell id="PsqxnXAQ3Fkz8UXOKLwo-44" value="1，bl4092通信串口初始化&lt;div&gt;2，复位bl4092芯片，配置相关参数&lt;/div&gt;" style="whiteSpace=wrap;html=1;fillColor=#0000FF;rounded=1;fontStyle=1;strokeWidth=3;fontColor=#FFFFFF;" parent="1" vertex="1">
          <mxGeometry x="409" y="409.5" width="158" height="74" as="geometry" />
        </mxCell>
        <mxCell id="PsqxnXAQ3Fkz8UXOKLwo-45" value="bl0942检测任务" style="text;strokeColor=none;align=center;fillColor=none;html=1;verticalAlign=middle;whiteSpace=wrap;rounded=0;fontFamily=Helvetica;fontSize=12;fontColor=#FFFFFF;fontStyle=1;" parent="1" vertex="1">
          <mxGeometry x="380" y="373" width="96" height="30" as="geometry" />
        </mxCell>
        <mxCell id="PsqxnXAQ3Fkz8UXOKLwo-46" value="根据不同状态控制led显示不同效果，常亮，闪烁等" style="whiteSpace=wrap;html=1;fillColor=#0000FF;fontColor=#FFFFFF;rounded=1;fontStyle=1;strokeWidth=3;" parent="1" vertex="1">
          <mxGeometry x="-503.5" y="537" width="120" height="60" as="geometry" />
        </mxCell>
        <mxCell id="PsqxnXAQ3Fkz8UXOKLwo-51" value="" style="edgeStyle=orthogonalEdgeStyle;shape=connector;rounded=0;orthogonalLoop=1;jettySize=auto;html=1;strokeColor=#FFFFFF;strokeWidth=2;align=center;verticalAlign=middle;fontFamily=Helvetica;fontSize=11;fontColor=default;labelBackgroundColor=default;endArrow=classic;" parent="1" source="PsqxnXAQ3Fkz8UXOKLwo-48" target="PsqxnXAQ3Fkz8UXOKLwo-50" edge="1">
          <mxGeometry relative="1" as="geometry" />
        </mxCell>
        <mxCell id="PsqxnXAQ3Fkz8UXOKLwo-52" value="是" style="edgeLabel;html=1;align=center;verticalAlign=middle;resizable=0;points=[];fontFamily=Helvetica;fontSize=11;fontColor=default;labelBackgroundColor=default;" parent="PsqxnXAQ3Fkz8UXOKLwo-51" vertex="1" connectable="0">
          <mxGeometry x="-0.2328" y="1" relative="1" as="geometry">
            <mxPoint as="offset" />
          </mxGeometry>
        </mxCell>
        <mxCell id="PsqxnXAQ3Fkz8UXOKLwo-48" value="读取参数库判断是否&lt;div&gt;存有配网数据&lt;/div&gt;" style="rhombus;whiteSpace=wrap;html=1;fillColor=#0000FF;fontColor=#FFFFFF;rounded=1;fontStyle=1;strokeWidth=3;" parent="1" vertex="1">
          <mxGeometry x="-80" y="537" width="128" height="106" as="geometry" />
        </mxCell>
        <mxCell id="PsqxnXAQ3Fkz8UXOKLwo-73" value="" style="edgeStyle=orthogonalEdgeStyle;shape=connector;rounded=0;orthogonalLoop=1;jettySize=auto;html=1;strokeColor=#FFFFFF;strokeWidth=2;align=center;verticalAlign=middle;fontFamily=Helvetica;fontSize=11;fontColor=default;labelBackgroundColor=default;endArrow=classic;" parent="1" source="PsqxnXAQ3Fkz8UXOKLwo-50" target="PsqxnXAQ3Fkz8UXOKLwo-72" edge="1">
          <mxGeometry relative="1" as="geometry" />
        </mxCell>
        <mxCell id="PsqxnXAQ3Fkz8UXOKLwo-74" value="成功" style="edgeLabel;html=1;align=center;verticalAlign=middle;resizable=0;points=[];fontFamily=Helvetica;fontSize=11;fontColor=default;labelBackgroundColor=default;" parent="PsqxnXAQ3Fkz8UXOKLwo-73" vertex="1" connectable="0">
          <mxGeometry x="-0.1516" y="1" relative="1" as="geometry">
            <mxPoint as="offset" />
          </mxGeometry>
        </mxCell>
        <mxCell id="sXCSSm3qtaqTTpKXIJX--47" style="edgeStyle=orthogonalEdgeStyle;shape=connector;rounded=0;orthogonalLoop=1;jettySize=auto;html=1;strokeColor=#FFFFFF;strokeWidth=2;align=center;verticalAlign=middle;fontFamily=Helvetica;fontSize=11;fontColor=default;labelBackgroundColor=default;endArrow=classic;exitX=1;exitY=0.5;exitDx=0;exitDy=0;" parent="1" source="PsqxnXAQ3Fkz8UXOKLwo-50" target="sXCSSm3qtaqTTpKXIJX--45" edge="1">
          <mxGeometry relative="1" as="geometry">
            <mxPoint x="104.40000000000009" y="739" as="targetPoint" />
            <Array as="points">
              <mxPoint x="106" y="739" />
            </Array>
          </mxGeometry>
        </mxCell>
        <mxCell id="sXCSSm3qtaqTTpKXIJX--48" value="失败" style="edgeLabel;html=1;align=center;verticalAlign=middle;resizable=0;points=[];fontFamily=Helvetica;fontSize=11;fontColor=default;labelBackgroundColor=default;" parent="sXCSSm3qtaqTTpKXIJX--47" vertex="1" connectable="0">
          <mxGeometry x="-0.3618" relative="1" as="geometry">
            <mxPoint as="offset" />
          </mxGeometry>
        </mxCell>
        <mxCell id="PsqxnXAQ3Fkz8UXOKLwo-50" value="进行WiFi配网&lt;div&gt;配网成功？&lt;/div&gt;" style="rhombus;whiteSpace=wrap;html=1;fillColor=#0000FF;fontColor=#FFFFFF;rounded=1;fontStyle=1;strokeWidth=3;" parent="1" vertex="1">
          <mxGeometry x="-80" y="686" width="128" height="106" as="geometry" />
        </mxCell>
        <mxCell id="PsqxnXAQ3Fkz8UXOKLwo-53" style="edgeStyle=orthogonalEdgeStyle;shape=connector;rounded=0;orthogonalLoop=1;jettySize=auto;html=1;strokeColor=#FFFFFF;strokeWidth=2;align=center;verticalAlign=middle;fontFamily=Helvetica;fontSize=11;fontColor=default;labelBackgroundColor=default;endArrow=classic;elbow=vertical;" parent="1" source="PsqxnXAQ3Fkz8UXOKLwo-48" target="sXCSSm3qtaqTTpKXIJX--45" edge="1">
          <mxGeometry relative="1" as="geometry">
            <mxPoint x="98" y="738" as="targetPoint" />
            <Array as="points">
              <mxPoint x="106" y="590" />
            </Array>
          </mxGeometry>
        </mxCell>
        <mxCell id="PsqxnXAQ3Fkz8UXOKLwo-55" value="无，不配网" style="edgeLabel;html=1;align=center;verticalAlign=middle;resizable=0;points=[];fontFamily=Helvetica;fontSize=11;fontColor=default;labelBackgroundColor=default;" parent="PsqxnXAQ3Fkz8UXOKLwo-53" vertex="1" connectable="0">
          <mxGeometry x="-0.0864" relative="1" as="geometry">
            <mxPoint as="offset" />
          </mxGeometry>
        </mxCell>
        <mxCell id="PsqxnXAQ3Fkz8UXOKLwo-67" value="" style="edgeStyle=orthogonalEdgeStyle;shape=connector;rounded=0;orthogonalLoop=1;jettySize=auto;html=1;strokeColor=#FFFFFF;strokeWidth=2;align=center;verticalAlign=middle;fontFamily=Helvetica;fontSize=11;fontColor=default;labelBackgroundColor=default;endArrow=classic;" parent="1" source="PsqxnXAQ3Fkz8UXOKLwo-64" target="PsqxnXAQ3Fkz8UXOKLwo-66" edge="1">
          <mxGeometry relative="1" as="geometry" />
        </mxCell>
        <mxCell id="PsqxnXAQ3Fkz8UXOKLwo-64" value="设置相应的uuid参数用来给用户设置配网参数。" style="whiteSpace=wrap;html=1;fillColor=#0000FF;fontColor=#FFFFFF;rounded=1;fontStyle=1;strokeWidth=3;" parent="1" vertex="1">
          <mxGeometry x="170.13" y="536.97" width="149.75" height="60" as="geometry" />
        </mxCell>
        <mxCell id="PsqxnXAQ3Fkz8UXOKLwo-66" value="启动ble" style="whiteSpace=wrap;html=1;fillColor=#0000FF;fontColor=#FFFFFF;rounded=1;fontStyle=1;strokeWidth=3;" parent="1" vertex="1">
          <mxGeometry x="185.00000000000003" y="626" width="120" height="60" as="geometry" />
        </mxCell>
        <mxCell id="PsqxnXAQ3Fkz8UXOKLwo-68" style="edgeStyle=orthogonalEdgeStyle;shape=connector;rounded=0;orthogonalLoop=1;jettySize=auto;html=1;strokeColor=#FFFFFF;strokeWidth=2;align=center;verticalAlign=middle;fontFamily=Helvetica;fontSize=11;fontColor=default;labelBackgroundColor=default;endArrow=classic;elbow=vertical;" parent="1" source="PsqxnXAQ3Fkz8UXOKLwo-46" target="PsqxnXAQ3Fkz8UXOKLwo-46" edge="1">
          <mxGeometry relative="1" as="geometry" />
        </mxCell>
        <mxCell id="PsqxnXAQ3Fkz8UXOKLwo-75" value="" style="edgeStyle=orthogonalEdgeStyle;shape=connector;rounded=0;orthogonalLoop=1;jettySize=auto;html=1;strokeColor=#FFFFFF;strokeWidth=2;align=center;verticalAlign=middle;fontFamily=Helvetica;fontSize=11;fontColor=default;labelBackgroundColor=default;endArrow=classic;entryX=0;entryY=0.5;entryDx=0;entryDy=0;exitX=0;exitY=0.45;exitDx=0;exitDy=0;exitPerimeter=0;" parent="1" source="PsqxnXAQ3Fkz8UXOKLwo-72" target="PsqxnXAQ3Fkz8UXOKLwo-50" edge="1">
          <mxGeometry relative="1" as="geometry">
            <mxPoint x="-16" y="928" as="targetPoint" />
          </mxGeometry>
        </mxCell>
        <mxCell id="sXCSSm3qtaqTTpKXIJX--49" value="更新配网" style="edgeLabel;html=1;align=center;verticalAlign=middle;resizable=0;points=[];fontFamily=Helvetica;fontSize=11;fontColor=default;labelBackgroundColor=default;" parent="PsqxnXAQ3Fkz8UXOKLwo-75" vertex="1" connectable="0">
          <mxGeometry x="0.0108" y="2" relative="1" as="geometry">
            <mxPoint as="offset" />
          </mxGeometry>
        </mxCell>
        <mxCell id="PsqxnXAQ3Fkz8UXOKLwo-72" value="判断是否有新的配网参数（更新WiFi）" style="whiteSpace=wrap;html=1;fillColor=#0000FF;fontColor=#FFFFFF;rounded=1;fontStyle=1;strokeWidth=3;" parent="1" vertex="1">
          <mxGeometry x="-76" y="835" width="120" height="60" as="geometry" />
        </mxCell>
        <mxCell id="sXCSSm3qtaqTTpKXIJX--37" value="" style="edgeStyle=orthogonalEdgeStyle;rounded=0;orthogonalLoop=1;jettySize=auto;html=1;strokeColor=#FFFFFF;strokeWidth=2;" parent="1" source="sXCSSm3qtaqTTpKXIJX--38" target="sXCSSm3qtaqTTpKXIJX--40" edge="1">
          <mxGeometry relative="1" as="geometry" />
        </mxCell>
        <mxCell id="sXCSSm3qtaqTTpKXIJX--38" value="初始化按键引脚" style="whiteSpace=wrap;html=1;fillColor=#0000FF;rounded=1;fontStyle=1;strokeWidth=3;fontColor=#FFFFFF;" parent="1" vertex="1">
          <mxGeometry x="-297" y="425.5" width="105" height="74" as="geometry" />
        </mxCell>
        <mxCell id="sXCSSm3qtaqTTpKXIJX--39" value="按键任务" style="text;strokeColor=none;align=center;fillColor=none;html=1;verticalAlign=middle;whiteSpace=wrap;rounded=0;fontFamily=Helvetica;fontSize=12;fontColor=#FFFFFF;fontStyle=1;" parent="1" vertex="1">
          <mxGeometry x="-323" y="389" width="60" height="30" as="geometry" />
        </mxCell>
        <mxCell id="sXCSSm3qtaqTTpKXIJX--40" value="循环读取按键引脚状态来得到按键输入事件，单击，连击，长按等。" style="whiteSpace=wrap;html=1;fillColor=#0000FF;fontColor=#FFFFFF;rounded=1;fontStyle=1;strokeWidth=3;" parent="1" vertex="1">
          <mxGeometry x="-304.5" y="542" width="120" height="77" as="geometry" />
        </mxCell>
        <mxCell id="sXCSSm3qtaqTTpKXIJX--41" style="edgeStyle=orthogonalEdgeStyle;shape=connector;rounded=0;orthogonalLoop=1;jettySize=auto;html=1;strokeColor=#FFFFFF;strokeWidth=2;align=center;verticalAlign=middle;fontFamily=Helvetica;fontSize=11;fontColor=default;labelBackgroundColor=default;endArrow=classic;elbow=vertical;" parent="1" source="sXCSSm3qtaqTTpKXIJX--40" target="sXCSSm3qtaqTTpKXIJX--40" edge="1">
          <mxGeometry relative="1" as="geometry" />
        </mxCell>
        <mxCell id="sXCSSm3qtaqTTpKXIJX--45" value="等待配网" style="whiteSpace=wrap;html=1;fillColor=#0000FF;fontColor=#FFFFFF;rounded=1;fontStyle=1;strokeWidth=3;" parent="1" vertex="1">
          <mxGeometry x="17" y="635" width="120" height="60" as="geometry" />
        </mxCell>
        <mxCell id="sXCSSm3qtaqTTpKXIJX--46" style="edgeStyle=orthogonalEdgeStyle;shape=connector;rounded=0;orthogonalLoop=1;jettySize=auto;html=1;strokeColor=#FFFFFF;strokeWidth=2;align=center;verticalAlign=middle;fontFamily=Helvetica;fontSize=11;fontColor=default;labelBackgroundColor=default;endArrow=classic;" parent="1" source="sXCSSm3qtaqTTpKXIJX--45" target="sXCSSm3qtaqTTpKXIJX--45" edge="1">
          <mxGeometry relative="1" as="geometry">
            <Array as="points">
              <mxPoint x="160" y="668" />
            </Array>
          </mxGeometry>
        </mxCell>
        <mxCell id="sXCSSm3qtaqTTpKXIJX--50" style="edgeStyle=orthogonalEdgeStyle;shape=connector;rounded=0;orthogonalLoop=1;jettySize=auto;html=1;strokeColor=#FFFFFF;strokeWidth=2;align=center;verticalAlign=middle;fontFamily=Helvetica;fontSize=11;fontColor=default;labelBackgroundColor=default;endArrow=classic;" parent="1" source="PsqxnXAQ3Fkz8UXOKLwo-72" target="PsqxnXAQ3Fkz8UXOKLwo-72" edge="1">
          <mxGeometry relative="1" as="geometry" />
        </mxCell>
        <mxCell id="sXCSSm3qtaqTTpKXIJX--51" style="edgeStyle=orthogonalEdgeStyle;shape=connector;rounded=0;orthogonalLoop=1;jettySize=auto;html=1;strokeColor=#FFFFFF;strokeWidth=2;align=center;verticalAlign=middle;fontFamily=Helvetica;fontSize=11;fontColor=default;labelBackgroundColor=default;endArrow=classic;" parent="1" source="PsqxnXAQ3Fkz8UXOKLwo-66" target="PsqxnXAQ3Fkz8UXOKLwo-66" edge="1">
          <mxGeometry relative="1" as="geometry" />
        </mxCell>
        <mxCell id="sXCSSm3qtaqTTpKXIJX--63" value="循环&lt;div&gt;间隔每2秒读取一次电量数据。&lt;/div&gt;" style="whiteSpace=wrap;html=1;fillColor=#0000FF;fontColor=#FFFFFF;rounded=1;fontStyle=1;strokeWidth=3;" parent="1" vertex="1">
          <mxGeometry x="428" y="542.5" width="120" height="60" as="geometry" />
        </mxCell>
        <mxCell id="sXCSSm3qtaqTTpKXIJX--74" value="" style="edgeStyle=orthogonalEdgeStyle;shape=connector;rounded=0;orthogonalLoop=1;jettySize=auto;html=1;strokeColor=#FFFFFF;strokeWidth=2;align=center;verticalAlign=middle;fontFamily=Helvetica;fontSize=11;fontColor=default;labelBackgroundColor=default;endArrow=classic;" parent="1" source="sXCSSm3qtaqTTpKXIJX--71" target="sXCSSm3qtaqTTpKXIJX--73" edge="1">
          <mxGeometry relative="1" as="geometry" />
        </mxCell>
        <mxCell id="sXCSSm3qtaqTTpKXIJX--75" value="按下" style="edgeLabel;html=1;align=center;verticalAlign=middle;resizable=0;points=[];fontFamily=Helvetica;fontSize=11;fontColor=default;labelBackgroundColor=default;" parent="sXCSSm3qtaqTTpKXIJX--74" vertex="1" connectable="0">
          <mxGeometry x="-0.2171" relative="1" as="geometry">
            <mxPoint as="offset" />
          </mxGeometry>
        </mxCell>
        <mxCell id="sXCSSm3qtaqTTpKXIJX--77" value="" style="edgeStyle=orthogonalEdgeStyle;shape=connector;rounded=0;orthogonalLoop=1;jettySize=auto;html=1;strokeColor=#FFFFFF;strokeWidth=2;align=center;verticalAlign=middle;fontFamily=Helvetica;fontSize=11;fontColor=default;labelBackgroundColor=default;endArrow=classic;" parent="1" source="sXCSSm3qtaqTTpKXIJX--71" target="sXCSSm3qtaqTTpKXIJX--76" edge="1">
          <mxGeometry relative="1" as="geometry" />
        </mxCell>
        <mxCell id="sXCSSm3qtaqTTpKXIJX--78" value="未按下" style="edgeLabel;html=1;align=center;verticalAlign=middle;resizable=0;points=[];fontFamily=Helvetica;fontSize=11;fontColor=default;labelBackgroundColor=default;" parent="sXCSSm3qtaqTTpKXIJX--77" vertex="1" connectable="0">
          <mxGeometry x="-0.47" y="3" relative="1" as="geometry">
            <mxPoint as="offset" />
          </mxGeometry>
        </mxCell>
        <mxCell id="sXCSSm3qtaqTTpKXIJX--71" value="上电判断按键是否按下？" style="whiteSpace=wrap;html=1;fillColor=#0000FF;rounded=1;fontStyle=1;strokeWidth=3;fontColor=#FFFFFF;" parent="1" vertex="1">
          <mxGeometry x="635" y="404.77" width="158" height="67.5" as="geometry" />
        </mxCell>
        <mxCell id="sXCSSm3qtaqTTpKXIJX--72" value="调度任务" style="text;strokeColor=none;align=center;fillColor=none;html=1;verticalAlign=middle;whiteSpace=wrap;rounded=0;fontFamily=Helvetica;fontSize=12;fontColor=#FFFFFF;fontStyle=1;" parent="1" vertex="1">
          <mxGeometry x="606" y="371.77" width="96" height="30" as="geometry" />
        </mxCell>
        <mxCell id="sXCSSm3qtaqTTpKXIJX--84" style="edgeStyle=orthogonalEdgeStyle;shape=connector;rounded=0;orthogonalLoop=1;jettySize=auto;html=1;entryX=0;entryY=0.5;entryDx=0;entryDy=0;strokeColor=#FFFFFF;strokeWidth=2;align=center;verticalAlign=middle;fontFamily=Helvetica;fontSize=11;fontColor=default;labelBackgroundColor=default;endArrow=classic;" parent="1" source="sXCSSm3qtaqTTpKXIJX--73" target="sXCSSm3qtaqTTpKXIJX--82" edge="1">
          <mxGeometry relative="1" as="geometry">
            <Array as="points">
              <mxPoint x="714" y="644" />
              <mxPoint x="818" y="644" />
            </Array>
          </mxGeometry>
        </mxCell>
        <mxCell id="sXCSSm3qtaqTTpKXIJX--73" value="配网模式" style="whiteSpace=wrap;html=1;fillColor=#0000FF;fontColor=#FFFFFF;rounded=1;fontStyle=1;strokeWidth=3;" parent="1" vertex="1">
          <mxGeometry x="654" y="522.77" width="120" height="39" as="geometry" />
        </mxCell>
        <mxCell id="sXCSSm3qtaqTTpKXIJX--83" value="" style="edgeStyle=orthogonalEdgeStyle;shape=connector;rounded=0;orthogonalLoop=1;jettySize=auto;html=1;strokeColor=#FFFFFF;strokeWidth=2;align=center;verticalAlign=middle;fontFamily=Helvetica;fontSize=11;fontColor=default;labelBackgroundColor=default;endArrow=classic;" parent="1" source="sXCSSm3qtaqTTpKXIJX--76" target="sXCSSm3qtaqTTpKXIJX--82" edge="1">
          <mxGeometry relative="1" as="geometry" />
        </mxCell>
        <mxCell id="sXCSSm3qtaqTTpKXIJX--76" value="正常工作模式&lt;div&gt;led根据配网状态显示不同效果&lt;/div&gt;" style="whiteSpace=wrap;html=1;fillColor=#0000FF;fontColor=#FFFFFF;rounded=1;fontStyle=1;strokeWidth=3;" parent="1" vertex="1">
          <mxGeometry x="798" y="508" width="120" height="55" as="geometry" />
        </mxCell>
        <mxCell id="sXCSSm3qtaqTTpKXIJX--85" style="edgeStyle=orthogonalEdgeStyle;shape=connector;rounded=0;orthogonalLoop=1;jettySize=auto;html=1;strokeColor=#FFFFFF;strokeWidth=2;align=center;verticalAlign=middle;fontFamily=Helvetica;fontSize=11;fontColor=default;labelBackgroundColor=default;endArrow=classic;" parent="1" source="sXCSSm3qtaqTTpKXIJX--82" edge="1">
          <mxGeometry relative="1" as="geometry">
            <mxPoint x="858" y="454" as="targetPoint" />
            <Array as="points">
              <mxPoint x="937" y="643.77" />
              <mxPoint x="937" y="453.77" />
            </Array>
          </mxGeometry>
        </mxCell>
        <mxCell id="sXCSSm3qtaqTTpKXIJX--86" value="成功" style="edgeLabel;html=1;align=center;verticalAlign=middle;resizable=0;points=[];fontFamily=Helvetica;fontSize=11;fontColor=default;labelBackgroundColor=default;" parent="sXCSSm3qtaqTTpKXIJX--85" vertex="1" connectable="0">
          <mxGeometry x="-0.7734" y="1" relative="1" as="geometry">
            <mxPoint as="offset" />
          </mxGeometry>
        </mxCell>
        <mxCell id="sXCSSm3qtaqTTpKXIJX--88" value="" style="edgeStyle=orthogonalEdgeStyle;shape=connector;rounded=0;orthogonalLoop=1;jettySize=auto;html=1;strokeColor=#FFFFFF;strokeWidth=2;align=center;verticalAlign=middle;fontFamily=Helvetica;fontSize=11;fontColor=default;labelBackgroundColor=default;endArrow=classic;" parent="1" source="sXCSSm3qtaqTTpKXIJX--82" target="sXCSSm3qtaqTTpKXIJX--87" edge="1">
          <mxGeometry relative="1" as="geometry" />
        </mxCell>
        <mxCell id="sXCSSm3qtaqTTpKXIJX--89" value="失败" style="edgeLabel;html=1;align=center;verticalAlign=middle;resizable=0;points=[];fontFamily=Helvetica;fontSize=11;fontColor=default;labelBackgroundColor=default;" parent="sXCSSm3qtaqTTpKXIJX--88" vertex="1" connectable="0">
          <mxGeometry x="-0.1825" y="2" relative="1" as="geometry">
            <mxPoint as="offset" />
          </mxGeometry>
        </mxCell>
        <mxCell id="sXCSSm3qtaqTTpKXIJX--82" value="配网成功？" style="rhombus;whiteSpace=wrap;html=1;fillColor=#0000FF;fontColor=#FFFFFF;rounded=1;fontStyle=1;strokeWidth=3;" parent="1" vertex="1">
          <mxGeometry x="818" y="603.5" width="80" height="80" as="geometry" />
        </mxCell>
        <mxCell id="sXCSSm3qtaqTTpKXIJX--90" style="edgeStyle=orthogonalEdgeStyle;shape=connector;rounded=0;orthogonalLoop=1;jettySize=auto;html=1;strokeColor=#FFFFFF;strokeWidth=2;align=center;verticalAlign=middle;fontFamily=Helvetica;fontSize=11;fontColor=default;labelBackgroundColor=default;endArrow=classic;" parent="1" source="sXCSSm3qtaqTTpKXIJX--87" edge="1">
          <mxGeometry relative="1" as="geometry">
            <mxPoint x="857" y="455" as="targetPoint" />
            <Array as="points">
              <mxPoint x="955" y="761.77" />
              <mxPoint x="955" y="454.77" />
            </Array>
          </mxGeometry>
        </mxCell>
        <mxCell id="sXCSSm3qtaqTTpKXIJX--87" value="重复5次配网" style="whiteSpace=wrap;html=1;fillColor=#0000FF;fontColor=#FFFFFF;rounded=1;fontStyle=1;strokeWidth=3;" parent="1" vertex="1">
          <mxGeometry x="798" y="732" width="120" height="60" as="geometry" />
        </mxCell>
        <mxCell id="1mK7h94CjfLpnch9oPWr-37" style="edgeStyle=orthogonalEdgeStyle;shape=connector;rounded=0;orthogonalLoop=1;jettySize=auto;html=1;strokeColor=#FFFFFF;strokeWidth=2;align=center;verticalAlign=middle;fontFamily=Helvetica;fontSize=11;fontColor=default;labelBackgroundColor=default;endArrow=classic;" parent="1" source="2" target="1mK7h94CjfLpnch9oPWr-38" edge="1">
          <mxGeometry relative="1" as="geometry">
            <mxPoint x="1479.5517241379312" y="408.8620689655172" as="targetPoint" />
            <mxPoint x="823" y="273" as="sourcePoint" />
          </mxGeometry>
        </mxCell>
        <mxCell id="1mK7h94CjfLpnch9oPWr-41" value="" style="edgeStyle=orthogonalEdgeStyle;rounded=0;orthogonalLoop=1;jettySize=auto;html=1;strokeColor=#FFFFFF;strokeWidth=2;" parent="1" source="1mK7h94CjfLpnch9oPWr-38" target="1mK7h94CjfLpnch9oPWr-40" edge="1">
          <mxGeometry relative="1" as="geometry" />
        </mxCell>
        <mxCell id="1mK7h94CjfLpnch9oPWr-38" value="初始化继电器开关控制gpio" style="whiteSpace=wrap;html=1;fillColor=#0000FF;rounded=1;fontStyle=1;strokeWidth=3;fontColor=#FFFFFF;" parent="1" vertex="1">
          <mxGeometry x="991" y="402" width="158" height="67.5" as="geometry" />
        </mxCell>
        <mxCell id="1mK7h94CjfLpnch9oPWr-39" value="继电器控制任务" style="text;strokeColor=none;align=center;fillColor=none;html=1;verticalAlign=middle;whiteSpace=wrap;rounded=0;fontFamily=Helvetica;fontSize=12;fontColor=#FFFFFF;fontStyle=1;" parent="1" vertex="1">
          <mxGeometry x="959" y="369" width="96" height="30" as="geometry" />
        </mxCell>
        <mxCell id="1mK7h94CjfLpnch9oPWr-40" value="进入状态机&lt;div&gt;循环等待控制继电器开关&lt;/div&gt;" style="whiteSpace=wrap;html=1;fillColor=#0000FF;fontColor=#FFFFFF;rounded=1;fontStyle=1;strokeWidth=3;" parent="1" vertex="1">
          <mxGeometry x="1010" y="553.25" width="120" height="60" as="geometry" />
        </mxCell>
        <mxCell id="46jNm4-g0Nsb7Lgoay_Q-37" style="edgeStyle=orthogonalEdgeStyle;rounded=0;orthogonalLoop=1;jettySize=auto;html=1;strokeColor=#FFFFFF;strokeWidth=2;" edge="1" parent="1" source="sXCSSm3qtaqTTpKXIJX--63" target="sXCSSm3qtaqTTpKXIJX--63">
          <mxGeometry relative="1" as="geometry" />
        </mxCell>
        <mxCell id="46jNm4-g0Nsb7Lgoay_Q-38" value="" style="edgeStyle=orthogonalEdgeStyle;rounded=0;orthogonalLoop=1;jettySize=auto;html=1;strokeColor=#FFFFFF;strokeWidth=2;" edge="1" parent="1" source="46jNm4-g0Nsb7Lgoay_Q-39" target="46jNm4-g0Nsb7Lgoay_Q-40">
          <mxGeometry relative="1" as="geometry" />
        </mxCell>
        <mxCell id="46jNm4-g0Nsb7Lgoay_Q-39" value="1，等待WiFi初始化并连网完成&lt;div&gt;2，mqtt任务初始化&lt;/div&gt;" style="whiteSpace=wrap;html=1;fillColor=#0000FF;rounded=1;fontStyle=1;strokeWidth=3;fontColor=#FFFFFF;" vertex="1" parent="1">
          <mxGeometry x="1191" y="400.47" width="173" height="67.5" as="geometry" />
        </mxCell>
        <mxCell id="46jNm4-g0Nsb7Lgoay_Q-50" value="" style="edgeStyle=orthogonalEdgeStyle;shape=connector;rounded=0;orthogonalLoop=1;jettySize=auto;html=1;strokeColor=#FFFFFF;strokeWidth=2;align=center;verticalAlign=middle;fontFamily=Helvetica;fontSize=11;fontColor=default;labelBackgroundColor=default;endArrow=classic;" edge="1" parent="1" source="46jNm4-g0Nsb7Lgoay_Q-40" target="46jNm4-g0Nsb7Lgoay_Q-49">
          <mxGeometry relative="1" as="geometry" />
        </mxCell>
        <mxCell id="46jNm4-g0Nsb7Lgoay_Q-54" value="ntp完成" style="edgeLabel;html=1;align=center;verticalAlign=middle;resizable=0;points=[];fontFamily=Helvetica;fontSize=11;fontColor=default;labelBackgroundColor=default;" vertex="1" connectable="0" parent="46jNm4-g0Nsb7Lgoay_Q-50">
          <mxGeometry x="-0.1301" y="-1" relative="1" as="geometry">
            <mxPoint as="offset" />
          </mxGeometry>
        </mxCell>
        <mxCell id="46jNm4-g0Nsb7Lgoay_Q-40" value="1，订阅相关主题&lt;div&gt;2，等待NTP授时完成&lt;/div&gt;" style="whiteSpace=wrap;html=1;fillColor=#0000FF;fontColor=#FFFFFF;rounded=1;fontStyle=1;strokeWidth=3;" vertex="1" parent="1">
          <mxGeometry x="1212.25" y="494.5" width="130.5" height="36.75" as="geometry" />
        </mxCell>
        <mxCell id="46jNm4-g0Nsb7Lgoay_Q-42" value="1，初始化ntp服务&lt;div&gt;2，运行ntp服务&lt;/div&gt;" style="whiteSpace=wrap;html=1;fillColor=#0000FF;rounded=1;fontStyle=1;strokeWidth=3;fontColor=#FFFFFF;" vertex="1" parent="1">
          <mxGeometry x="1427" y="399" width="158" height="67.5" as="geometry" />
        </mxCell>
        <mxCell id="46jNm4-g0Nsb7Lgoay_Q-44" style="edgeStyle=orthogonalEdgeStyle;rounded=0;orthogonalLoop=1;jettySize=auto;html=1;strokeWidth=2;strokeColor=#FFFFFF;" edge="1" parent="1" source="1mK7h94CjfLpnch9oPWr-40" target="1mK7h94CjfLpnch9oPWr-40">
          <mxGeometry relative="1" as="geometry" />
        </mxCell>
        <mxCell id="46jNm4-g0Nsb7Lgoay_Q-47" value="mqtt任务" style="text;strokeColor=none;align=center;fillColor=none;html=1;verticalAlign=middle;whiteSpace=wrap;rounded=0;fontFamily=Helvetica;fontSize=12;fontColor=#FFFFFF;fontStyle=1;" vertex="1" parent="1">
          <mxGeometry x="1175" y="365" width="96" height="30" as="geometry" />
        </mxCell>
        <mxCell id="46jNm4-g0Nsb7Lgoay_Q-48" value="ntp网络授时任务" style="text;strokeColor=none;align=center;fillColor=none;html=1;verticalAlign=middle;whiteSpace=wrap;rounded=0;fontFamily=Helvetica;fontSize=12;fontColor=#FFFFFF;fontStyle=1;" vertex="1" parent="1">
          <mxGeometry x="1386" y="362" width="96" height="30" as="geometry" />
        </mxCell>
        <mxCell id="46jNm4-g0Nsb7Lgoay_Q-52" value="" style="edgeStyle=orthogonalEdgeStyle;shape=connector;rounded=0;orthogonalLoop=1;jettySize=auto;html=1;strokeColor=#FFFFFF;strokeWidth=2;align=center;verticalAlign=middle;fontFamily=Helvetica;fontSize=11;fontColor=default;labelBackgroundColor=default;endArrow=classic;" edge="1" parent="1" source="46jNm4-g0Nsb7Lgoay_Q-49" target="46jNm4-g0Nsb7Lgoay_Q-51">
          <mxGeometry relative="1" as="geometry" />
        </mxCell>
        <mxCell id="46jNm4-g0Nsb7Lgoay_Q-49" value="1、获取主题发布数据&lt;div&gt;2、解析数据并执行&lt;/div&gt;" style="whiteSpace=wrap;html=1;fillColor=#0000FF;fontColor=#FFFFFF;rounded=1;fontStyle=1;strokeWidth=3;" vertex="1" parent="1">
          <mxGeometry x="1215.75" y="595" width="123.5" height="40" as="geometry" />
        </mxCell>
        <mxCell id="46jNm4-g0Nsb7Lgoay_Q-57" style="edgeStyle=orthogonalEdgeStyle;shape=connector;rounded=0;orthogonalLoop=1;jettySize=auto;html=1;strokeColor=#FFFFFF;strokeWidth=2;align=center;verticalAlign=middle;fontFamily=Helvetica;fontSize=11;fontColor=default;labelBackgroundColor=default;endArrow=classic;entryX=1;entryY=0.5;entryDx=0;entryDy=0;" edge="1" parent="1" source="46jNm4-g0Nsb7Lgoay_Q-51" target="46jNm4-g0Nsb7Lgoay_Q-49">
          <mxGeometry relative="1" as="geometry">
            <mxPoint x="1277.4999999999995" y="575" as="targetPoint" />
            <Array as="points">
              <mxPoint x="1385" y="699" />
              <mxPoint x="1385" y="615" />
            </Array>
          </mxGeometry>
        </mxCell>
        <mxCell id="46jNm4-g0Nsb7Lgoay_Q-51" value="1、间隔60秒发送电量和开关状态" style="whiteSpace=wrap;html=1;fillColor=#0000FF;fontColor=#FFFFFF;rounded=1;fontStyle=1;strokeWidth=3;" vertex="1" parent="1">
          <mxGeometry x="1211.75" y="672" width="131.5" height="54" as="geometry" />
        </mxCell>
        <mxCell id="46jNm4-g0Nsb7Lgoay_Q-53" style="edgeStyle=orthogonalEdgeStyle;shape=connector;rounded=0;orthogonalLoop=1;jettySize=auto;html=1;strokeColor=#FFFFFF;strokeWidth=2;align=center;verticalAlign=middle;fontFamily=Helvetica;fontSize=11;fontColor=default;labelBackgroundColor=default;endArrow=classic;elbow=vertical;" edge="1" parent="1" source="46jNm4-g0Nsb7Lgoay_Q-40" target="46jNm4-g0Nsb7Lgoay_Q-40">
          <mxGeometry relative="1" as="geometry" />
        </mxCell>
        <mxCell id="46jNm4-g0Nsb7Lgoay_Q-55" value="等ntp" style="edgeLabel;html=1;align=center;verticalAlign=middle;resizable=0;points=[];fontFamily=Helvetica;fontSize=11;fontColor=default;labelBackgroundColor=default;" vertex="1" connectable="0" parent="46jNm4-g0Nsb7Lgoay_Q-53">
          <mxGeometry x="-0.155" y="1" relative="1" as="geometry">
            <mxPoint as="offset" />
          </mxGeometry>
        </mxCell>
        <mxCell id="46jNm4-g0Nsb7Lgoay_Q-58" value="" style="edgeStyle=orthogonalEdgeStyle;rounded=0;orthogonalLoop=1;jettySize=auto;html=1;strokeColor=#FFFFFF;strokeWidth=2;" edge="1" parent="1" source="46jNm4-g0Nsb7Lgoay_Q-59" target="46jNm4-g0Nsb7Lgoay_Q-60">
          <mxGeometry relative="1" as="geometry" />
        </mxCell>
        <mxCell id="46jNm4-g0Nsb7Lgoay_Q-59" value="创建定时器" style="whiteSpace=wrap;html=1;fillColor=#0000FF;rounded=1;fontStyle=1;strokeWidth=3;fontColor=#FFFFFF;" vertex="1" parent="1">
          <mxGeometry x="1749" y="382.47" width="158" height="67.5" as="geometry" />
        </mxCell>
        <mxCell id="46jNm4-g0Nsb7Lgoay_Q-60" value="循环执行&lt;div&gt;间隔20秒输出1秒高电平给电源控制芯片&lt;/div&gt;" style="whiteSpace=wrap;html=1;fillColor=#0000FF;fontColor=#FFFFFF;rounded=1;fontStyle=1;strokeWidth=3;" vertex="1" parent="1">
          <mxGeometry x="1768" y="533.72" width="120" height="60" as="geometry" />
        </mxCell>
        <mxCell id="46jNm4-g0Nsb7Lgoay_Q-61" value="继电器控制任务" style="text;strokeColor=none;align=center;fillColor=none;html=1;verticalAlign=middle;whiteSpace=wrap;rounded=0;fontFamily=Helvetica;fontSize=12;fontColor=#FFFFFF;fontStyle=1;" vertex="1" parent="1">
          <mxGeometry x="1756" y="329.22" width="96" height="30" as="geometry" />
        </mxCell>
        <mxCell id="46jNm4-g0Nsb7Lgoay_Q-62" value="" style="edgeStyle=orthogonalEdgeStyle;rounded=0;orthogonalLoop=1;jettySize=auto;html=1;strokeColor=#FFFFFF;strokeWidth=2;" edge="1" parent="1" source="46jNm4-g0Nsb7Lgoay_Q-63" target="46jNm4-g0Nsb7Lgoay_Q-64">
          <mxGeometry relative="1" as="geometry" />
        </mxCell>
        <mxCell id="46jNm4-g0Nsb7Lgoay_Q-63" value="创建定时器" style="whiteSpace=wrap;html=1;fillColor=#0000FF;rounded=1;fontStyle=1;strokeWidth=3;fontColor=#FFFFFF;" vertex="1" parent="1">
          <mxGeometry x="1963" y="396.25" width="158" height="67.5" as="geometry" />
        </mxCell>
        <mxCell id="46jNm4-g0Nsb7Lgoay_Q-64" value="循环执行&lt;div&gt;间隔20秒输出1秒高电平给电源控制芯片&lt;/div&gt;" style="whiteSpace=wrap;html=1;fillColor=#0000FF;fontColor=#FFFFFF;rounded=1;fontStyle=1;strokeWidth=3;" vertex="1" parent="1">
          <mxGeometry x="1982" y="547.5" width="120" height="60" as="geometry" />
        </mxCell>
        <mxCell id="46jNm4-g0Nsb7Lgoay_Q-65" value="继电器控制任务" style="text;strokeColor=none;align=center;fillColor=none;html=1;verticalAlign=middle;whiteSpace=wrap;rounded=0;fontFamily=Helvetica;fontSize=12;fontColor=#FFFFFF;fontStyle=1;" vertex="1" parent="1">
          <mxGeometry x="1970" y="343" width="96" height="30" as="geometry" />
        </mxCell>
      </root>
    </mxGraphModel>
  </diagram>
</mxfile>
